<mxfile host="app.diagrams.net" modified="2024-04-30T00:36:00.583Z" agent="Mozilla/5.0 (Windows NT 10.0; Win64; x64) AppleWebKit/537.36 (KHTML, like Gecko) Chrome/124.0.0.0 Safari/537.36" etag="t4Bb5uiaF2hw7tyCC5g4" version="24.3.1" type="github">
  <diagram name="Page-1" id="viEiW4BfUOVlIajLa0RM">
    <mxGraphModel dx="880" dy="460" grid="1" gridSize="10" guides="1" tooltips="1" connect="1" arrows="1" fold="1" page="1" pageScale="1" pageWidth="827" pageHeight="1169" math="0" shadow="0">
      <root>
        <mxCell id="0" />
        <mxCell id="1" parent="0" />
        <mxCell id="hfZZUyvQ45edJxOSnpxv-9" value="" style="edgeStyle=orthogonalEdgeStyle;rounded=0;orthogonalLoop=1;jettySize=auto;html=1;" edge="1" parent="1" source="hfZZUyvQ45edJxOSnpxv-1" target="hfZZUyvQ45edJxOSnpxv-8">
          <mxGeometry relative="1" as="geometry" />
        </mxCell>
        <mxCell id="hfZZUyvQ45edJxOSnpxv-1" value="" style="aspect=fixed;sketch=0;html=1;dashed=0;whitespace=wrap;fillColor=#2875E2;strokeColor=#ffffff;points=[[0.005,0.63,0],[0.1,0.2,0],[0.9,0.2,0],[0.5,0,0],[0.995,0.63,0],[0.72,0.99,0],[0.5,1,0],[0.28,0.99,0]];shape=mxgraph.kubernetes.icon2;kubernetesLabel=1;prIcon=user" vertex="1" parent="1">
          <mxGeometry x="20" y="130" width="81.25" height="78" as="geometry" />
        </mxCell>
        <mxCell id="hfZZUyvQ45edJxOSnpxv-8" value="" style="whiteSpace=wrap;html=1;sketch=0;dashed=0;" vertex="1" parent="1">
          <mxGeometry x="115" y="130" width="295" height="84" as="geometry" />
        </mxCell>
        <mxCell id="hfZZUyvQ45edJxOSnpxv-13" value="" style="shape=image;verticalLabelPosition=bottom;labelBackgroundColor=default;verticalAlign=top;aspect=fixed;imageAspect=0;image=data:image/jpeg,/9j/4AAQSkZJRgABAQAAAQABAAD/2wCEAAkGBxMQEBUPEBARFhUWFxcQEBUQFxcVFxUXFxcXGBoVFRUYHSghGBolHRYZITEhKCotLi4vFx8zODMsNygvMCsBCgoKDg0OGxAQGi0iICU3LS0vLS8vLS8vLTU2NS8tLystLy0xLTAvKy0tLS03Ly0tLS0tLS8tLS8tLS0tLS0tLf/AABEIANYA7AMBEQACEQEDEQH/xAAcAAEAAgMBAQEAAAAAAAAAAAAABQYBBAcCAwj/xABIEAABAwIDAwYJCQgABgMAAAABAAIDBBEFEiEGMVETIkFhcZEHFzRSU3KBksIUMjVCc4Khs9IjM2KxssHR0xUWVIOj4SU2Q//EABoBAQACAwEAAAAAAAAAAAAAAAAEBQECAwb/xAA2EQACAQMABQoGAwACAwAAAAAAAQIDBBEFEiExURUzQXGBkaGxwdETIjI0UmEU8PFC4SM1sv/aAAwDAQACEQMRAD8A7igCAICE2j2op6ADli4vcLtjjALiOOpAA6yePBcK1xCl9RLtbKrcfRu4vcV/xpUvoKrui/2LhyhS4Mm8i1vyj4+w8aVL6Cq7ov8AYnKFLgxyLW/KPj7DxpUvoKrui/2JyhS4Mci1vyj4+w8aVL6Cq7ov9icoUuDHItb8o+PsPGlS+gqu6L/YnKFLgxyLW/KPj7DxpUvoKrui/wBicoUuDHItb8o+PsPGlS+gqu6L/YnKFLgxyLW/KPj7DxpUvoKrui/2JyhS4Mci1vyj4+x9IPCdSOcA6OoYDvc5rCB1kNeT3Aor+k30mJaGrpZTT7/VFzp52yMbIxwc1wDmuabgg6ggqammsoqpRcW4yWGj6LJqEAQBAEAQBAEAQBAEAQBAEAQBAEAQGtV4hFDblZoo77uUe1t+y5WkqkIfU0jpTo1Kn0Rb6lk4pt9WiXEZnMeHt5jWOYczbCNmjSNDqXe26pLuSnVbTyj1ej4Onbxi009udn7ZX83Ue4qNgm5GbqPcUwMjN1HuKYGRm6j3FMDIzdR7imBkZuo9xTAyM3Ue4pgZGbqPcUwMjN1HuKYGTrXg3xmFlA2OaoiYWveA2R7WkAuvucb2uSri0rQjSSlJLtR5vSdvVncOUINrZuTLxG8OAc0gg6gg3B7Cp6eSoaaeGekMBAEAQBAEAQBAEAQBAEAQBAEAQGCUB+e62sfPI6aR13vOZxPX0DgBuA6l5apNzk5SPf06caUVCO5Gq7esIPeYuhgXQC6yBdALoBdALoBdALoD2zctWbx3HSPBHVOPLwl12NySNHmlxcHW4XsO5W2jJtqUXuPP6dpx+SfS8ryOiq1PPBAEAQBAEAQBAEAQBAEAQBAEBH7QYj8mppJwLloAaDuzOIaL9VyFxr1fh03IkWtH41WNPj/py2baOrcS41MuvmnKPYBoFSu5qt/Uz08bK3SxqIrfJDzR3LUmHkxDgO5Bg88kOAQzgwYhwCGcI8mMcAsDCMGMcAhnCPJYOAQzhGCwcEGEecg4LBnVRgsHBBqowWoZ1UYssGcI3sIxCWAuMMr48wAdkJF7br9571n4s4fS8HKrQp1Ma8Uy7bDbV1BqmU80jpGSXbz9XNdYkEO3ndax4qXZ3dR1FCTymVOktH0VRdSCw1w6TqSuTzAQBAEAQBAEAQBAEAQBAEAQEBt35BL2x/msUS+5h9nmiw0X91Ht8mcoKoz1JpkLqbBrCSAASToAOkoZzgsdDsmSLzPynzWWJHa4rqqXEhzvEtkUfap2Qbb9nK4H+MAj8LWR0uBrG8fSir11G+F5jkFiO4jiD0hcWmtjJ0JqayjWIWDc8kIDBCwZJzAtlpKkCRx5OM7iRdzvVbw6z+K7U6Llt3IiV7yNJ6q2snnbBw20lmvxOUjusu/8aPEhrSVTO5FYx7Z2Wk5zrPjJsHtFteDh9UqPUpOBPt7qFbYtj4EKQuJKPpBvK1mZLBsV9IU/r/C5dbPnokHSP2s+r1O4L0Z4oIAgCAIAgCAIAgCAIAgCAICA278gl7Y/zWKJfcw+zzRYaL+6j2+TOUFUZ6k1SF0NiwbH0gc90pHzbNb2m9z3fzXWktuSJdzwlHifLaLGHukdExxaxpynKbFxG+54dFlipN5wja3oxUVJ7yOoMWlhcHB7iPrNcSQR7d3atFNo7TowmsNFk2mgbNSiYb2gSNP8LrXHcb+xdqizHJDtpOFTVZSSFGLIwQhk28FoxPURxHc53O9UAuI7gVtTjrSSOVepqU3JFz2vxh1NGyKHmueDYj6jW2Gg49HsUuvU1FhFZZ0FVk5S3IorMQma7OJpc2++d343Oqh/ElnOS2dKm1jVXcdAwGuFfSuZMATrFLbcdLhw4b+8KdTl8SG0prin/Hqpx60c2qISx7mHe1xYfukj+yr2sPBexlrRT4mId60kZLBsV9IU/r/C5drPnokLSP2s+r1O3r0Z4oIAgCAIAgCAIAgCAIAgCAICA278gl7Y/wA1iiX3MPs80WGi/uo9vkzlBVGepNchbmxYtjqgAviO82e3rtof7LtRfQQ7uOxSNDaPD3RyufY5HkuDugE6kHgbrSpFp5O1vUUopdKI6kpHzODIwST3DrJ6AtEm9iO05qCyy27QPENHyV94bE3rta57gpFT5YYK+gnOrrdpSCFFLM8kIZN/AKkQ1UUjtwdZx4BwLb+y91vSlqzTONxBzpSSLTtzhT5WsmjBcWAh4GpynW4HTb+6lXNNySaK+wrRg3GXSUMC5sNTuAGp7lBLjcsnRdk6A0lM583NLiZXg/VaBoD12F/arCjDUhtKO7qqtUSht6DnlXLykj5LfOc59vWJP91XyeW2XcI6sVHgeI1pI2J7Yr6Qp/X+Fy72fPRIWkftZ9XqdvXozxQQBAEAQBAEAQBAEAQBAEAQFf278gl7Y/zWKJfcw+zzRYaL+6j2+TOUlUZ6k+JC2NjMUrmOD2mxBuCETxtMNJrDLngmKfKWuDmgFtg7gb33Do3KVTnrIra1H4b2M2q6obBE6TLoLaNsL3Nv7raT1Vk0hFzko5KLieIPqH539GjWjc0dX+VDlNyeWWlOmqawjTWp1PJCGTBCwC2bKbRPzMpZBmB5sb76jS9ncRpv3qZQrvKiytu7SOHUjs4ouIiaDmDW342F+9TMFZl4wc/2m2jfPmgYMkYJDvOfY9PAablX1q7l8q3Fza2kaeJva/IrhCjE8yxYYJ3Yr6Qp/X+Fy72fPRIWkftZ9XqdvXozxQQBAEAQBAEAQBAEAQBAEAQEBt35BL2x/msUS+5h9nmifov7qPb5M5QVRnqj5FZMmCEMlg2TdblPu/Eu1HpIl0txv7QPvTPHq/1Bb1H8rOVuv/IilkKKWR5WDJghDJ5KAmdl6CV1TFKI35Guu5xFhax6Tv8AYu9CEtdPGwiXdWCpyjnadGCsSkOQ1n7x/ru/qKqJ/Uz01P6F1I+BWhuZasME5sV9IU/r/C5SLPnokLSP2s+r1O3r0Z4oIAgCAIAgCAIAgCAIAgCAICv7d+QS9sf5rFEvuYfZ5osNF/dR7fJnKSqM9SfMrJkwUMkzs662f7v911pdJGuFuNvGX3gcOz+YW038pzor50VYqOTzbo8Jmm/dxOI8481ved63jSnLcjlO4pw+pk9RbFk6zS2/hiHxH/CkRtfyZDnpD8F3k/Q4FTw6siaT5z+ce87vYpEaUI7kQ6lzVnvZIrocCPrsagg/eStv5rec7uC5yqwjvZ2p29Sp9KOY1Dsz3OG4uc4dhJKq5PLbPQQWIpHxK1NgFhmSc2K+kKf1/hcpFnz0SFpH7WfV6nb16M8UEAQBAEAQBAEAQBAEAQBAEBAbd+QS9sf5rFEvuYfZ5osNF/dR7fJnKCqM9SeFkyYKwZJjZymkkLxGwu+bfcAN+8ldqMJSzgi3NSMMazLG/Zpz2ESyAA2uI9Tv84/4Ur+NlfMyAr1KXyLvNiiwOCHVsQJ85/OPed3sW8aUI7kaVLipPeyRXQ4mhXYzBD+8lbfzW853cFznVhHeztToVJ/Siv1u2fRDF96U/CP8qPK7/FEyno/833Ffr8anm0fK63ms5re4b/ao0605b2TqdtShuRG2XI7mEMmCgMBYMk3sV9IU/r/C5SLPnokLSP2s+r1O3r0Z4oIAgCAIAgCAIAgCAIAgCAICv7d+QS9sf5rFEvuYfZ5osNF/dR7fJnKSqM9SeSsmTyVgyXDwef8A7/8Ab+NTrPpKnSn/AB7fQtGJ1TYYnSPNmi17AneQNw7VLqSUY5ZXUYOc1GO8p9btj0QxfekPwj/KgyuvxRbU9H/m+4gK3GZ5tHyut5rea3uG/wBqjyrTlvZNp29OG5EdZcjuYKwZMFDJ5KAwsGTCAwsGSa2K+kKf1/hcpVnz0SFpH7WfV6nb16I8UEAQBAEAQBAEAQBAEAQBAEBAbd+QS9sf5rFEvuYfZ5osNF/dR7fJnKCqM9SeShkwhkuPg9abTGxscgB6DbNexU6z3MqdKPbFdZMbXtJopQAT806a7ntXe45tkSxaVeOf7sOYqoPRmChk8oDBWDJ5KAwVgyeUMmEBhYMk1sV9IU/r/C5SbPnokLSP2s+r1O3r0Z4oIAgCAIAgCAIAgCAIAgCAICA278gl7Y/zWKJfcw+zzRYaL+6j2+TOUFUZ6kwUMkps1hPyqbK6+RozSW6eDb9F/wCxXehS+JLbuIt3cfBhlb3uLXjO0MdHaCOMOcAOa3mtYOi549SmVa8aXypFZb2k6/zyeFx4mnhu2jXvDJowwE2D2m4HrAjQda507xN4ksHato1xjmDz+jT22wRsY+VRAAE2laN1zueOFzoe0LS7opfOu066PuXJ/Dl2exUCoJankrBkwUMmChk8rAMIZMIDyVgyTWxX0hT+v8LlKs+eiQtI/az6vU7evRHiggCAIAgCAIAgCAIAgCAIAgIDbvyCXtj/ADWKJfcw+zzRYaL+6j2+TOUFUZ6kwUMlx8HxGWYdN2E9ljb8bqfZ7mVOk85j2lZx9rhVTB+/lHH2E3b+FlErZ+I8ljatOjHHAjnLidzomMgtwsiX53JRtdfz+aO+6tauyh83AoKG27+Xdl9205yVVHoDCwZPJQyYKwZPKAwhkwsA8lDJNbFfSFP6/wALlKs+eiQtI/az6vU7evRHiggCAIAgCAIAgCAIAgCAIAgIDbvyCXtj/NYol9zD7PNFhov7qPb5M5QVRnqTBQySGA4oaWYSWJaRlkA6RxHWF1o1fhyycLmgq0NXp6C512F0+INErX62sHxkXt5rgf76qfOlTrLJT069a2eq12M+OH7JwQO5WR5fl5wz2a1tukjp9q1hawg8vab1b+rUWrFYzw3kFthj7ZyIIjeNpzOd0PcN1v4R+Kj3NdT+WO4m2Fo6fzz3+RVyoZZHkrBkwUMnkoZMLAMIZMLAPJQyTWxX0hT+v8LlKs+eiQtI/az6vU7evRHiggCAIAgCAIAgCAIAgCAIAgIHbppNBLYeYfYJGEqJfLNB9nmifox4uY9vkzk5VGeqMFDJ5WDJ6ilcw3Y5zTxYS094WU2tzMOMZbJLJmoqpJNJJJHdT3OcO4lJTk97MRpwj9KS7D4FanQ8lAYWDJ5KGTBQyeVgGEMmFgHkoZJrYkf/ACFP65/ocpVlz0SFpH7WfV6o7evRHiggCAIAgCAIAgCAIAgCAIAgPMsYc0tcAWkFrgdQQdCCOCw0msMzGTi8reVebYKlcSQ6Zo81rgQOzM0n8VCej6TfSizjpeulhpPs9mePF/TekqPeZ+hY5OpcX4extyxX4R8fcx4vqb0lR7zP0JydS4vw9hyzX4R8fceL2m9JUe8z9CcnUuL8PYcs1+Ee5+5jxeUvpKj3mfoTk6lxfh7GeWa/CPc/ceLul9JUe8z9CxydS4vw9hy1X4R7n7mPF1S+kqPeZ+hOTaXF+HsOWq/CPc/ceLql9JU+8z9Ccm0uL8PYzy1X4R7n7mPFzS+kqfeZ+hOTaXF+HsOWq/CPc/cx4uKX0tT7zP0JybS4vw9hy3X4R7n7jxb0vpan3mfoWOTaXF+HsOW6/wCMe5+5jxbUvpan3o/0JyZS4vw9jPLdx+Me5+48W1L6Wp96P9CcmUuL8PYcuXH4x7n7mPFrSelqfej/AEJyZS4vw9hy5cfjHufuS2AbJU1E8yRh7n2sHykEgHeGgAAdtrqRQtKdF5jv/ZEutI1riOrLCXBE8pJBCAIAgCAIAgCAIAgCAIAgCAIAgCAIAgCAIAgCAIAgCAIAgCAIAgCAIAgCAIAgCAIAgCAIAgCAIAgCAIAgCAIAgCAIAgCAIAgCAIAgCAIAgCAIAgCAIAgCAIAgCAIAgCAIAgCAIAgCAIAgCAIAgCAIAgCAIAgCAIAgCAIAgCAIAgCAIDVxPEYqaMzTvysBAJsTqTYaNBJ1K0nUjCOtJ7DrRozrT1Kayz4YPjlPVhxp5c+SwfzXNte9tHAcD3LWlWhV+h5N7i1q2+PiLGer0JFdSOEAQBAEAQBAEAQBAEAQGliuKRUsfKzvyNuGXyudqb2FmgnoK51Ksaa1pPCO1C3qV5atNZfZ6kT/AM9UH/U/+OX9C4fzqH5eD9iXyTd/h4r3JTDMZgqb8hMx9tSGnnAcS06juXenVhU+l5Ita2q0eci0b66HAIAgCAIAgCAIAgCAIAgCA5z4Ua4ySwUEeriRI4cXPOSMfi7vCq9ITcpRpI9DoWkoQnXlu3di2v0NHZgnDsWdSuPMeeRuenNZ0Tu3UN+8Vyt//BcOm9z/AKjveYu7FVVvW30fv2HVFcnlyCO2FCNPlTOG53+FH/l0fyJ3Jt1+D8DH/OND/wBUzud/hP5dH8kOTbr8H4G7XY5TwMZJLM1rZBmjJvzhYHSw4ELedaEEnJ7zjTta1STjCOWt5u08zZGNkYbtcA9pHSCLg9xXRNNZRxlFxk4y3o0X47Ttn+SmZvK3Dcmt7kAgbrbiCubrQUtTO07K0rOn8VR+XifbE8Vhpmh88gYHHK0m+psTbQcAtp1IwWZPBrRt6lZ4prJqVu09JCxkkk7Q2QZ47Bzi5p+tlaCbddlzncUoJOT3nWnY3FSTjGO1byRNUwR8qXtDMufM45QGkXuSdwXbWWM9BH+HJy1Etu7BBnbegzZPlI4XySZfey2t1qN/NoZxrE3kq7xnU8V5ZJ6CdsjQ9jmua4Xa5pBBHEEb1JTTWUQZRlF6slhn0WTUp3hU8hb9sz+l6gaR5ntLfQn3D6n6GnsZsrSVFDFNNBme7Pmdnkbe0j2jRrgBoAudpa0p0lKS29vE76Q0hcUbmUISwljoXBfoq+1FF/wqva6mc7RrZ4wTqAXOBYT0g5SOw21US4h/GrJw6yysqv8AOtmqq4p+G3xOyhXx48gKvbOhidkdUtJGhyNe8D7zAQo0rujF4cifT0ZdTWsod+F5krh2IxVDOUgka9u67TuPAjeD1FdoVIzWYvJFq0alKWrUWGa+IY7T08gimmax7gHNab3IJIB0HEFazrQg8SeGb0rStVi5QjlHwxTaikpn8nNO0P6WtDnkesGA5fatalzSpvEmdKFhcVo60I7OxeZuYXi0NU0vgla8DR1tCPWadR7Qt6dWFRZi8nGtb1aL1akcG3JIGgucQABckmwAHSSdy3bxtZySbeEV+bbegY7KakHrYyRw95rSCozvKCeNYnx0VdyWdTvaXmyXw3E4alueCVjxuOU6g8HDeD2rvCpGazF5IlahUovVqRwfSsq44WGSV7WNG9zyAOzXpWZSUVmTwa06c6ktWCy/0QY25oL5flHt5OS3flso/wDNofl5k7kq7xnU8V7lhjkDgHNNwQHAjpB1BUlPO0r2mnhmXOABJNgNST0LISzsRyzZeQV2LPrHkBjS6VuY2/gibr0ga9rVTW7+Ncuo9y/qPT3qdtYqjHe9nq/7+zY8KVOBJDWRPF/3bi0gkOac7D/V3Bb6RjhxqROehZtwnRmv36P0L9gmICpp46gfXaHEDoduc32EEexWVKoqkFJdJRXNF0asqb6H/hDV2yeHRMfNLA0NaC95L5P1anqXCdrbxTlKPmTKWkL2clCEtr2bl7FG2ZwJuI1bnti5OmYQXNBJ0+rHmJJLjvOumu64Vdb0FXquSWIou7y7laUFFy1pvp9epdH+k74W2gR0wAAAMgAGgAszQBSNJ/TEg6CeZVG/16ly2b8ipvsIvy2qdb81HqXkU959xU635nPq/wD+wj7WL8lirZ/e93kX9L/1fY/Nkx4WvJoftvgeu+kubXWRNBc9Lq9Ua2yWxsVTTNqKzO9z2gRtDi0MjaMrfmnUkC/DUaXutba0jOCnU2s6X2k6lGq6dHCS37M5e97zQ8IdYTPDhzZMkUbYw8uOmZ2gc/iGtsfaVyvp5nGlnC2HfRNLFOVw1mTz/i62S3yTBeR5HlYL2tymb9pfzs/G+tt3VZd9S01NXK6+ki/E0n8TX1X1Y2dWP6zT8FFc4STUhddoHKstuBDsri3qN2n2da56OqPMqeTrpyknGFXGHufmu7adIVqedKd4VPIW/bM/peoGkeZ7S30J9w+p+hVsE2tqqSkYxlKDE3Nlle2TKcz3E84c3Qkjf0KHRuqtKkko7OJaXOjqFeu5SniTxsys7u83NmMJdilR8vqpo3BrheJnzub81pb9Rml+m+vWV0t6TuJ/Fm+w43lxGypfApRaz0vxf7fdgmfChizoadkEZIMxcHkb8jQMzfaXNHZcdK76QrOEFFdJD0LbxqVXOX/HzZHbOUuFR07flElO+VzQ6UyG+UkXyNH1bbrjXRc6ELaMFrNN9JIu6l/Oq/hqSit2On99pHbNVDKXF+SppM8Eh5MEG4ILczdektdzb79/FcaElTudWD+Vkm8hKtY69VYmtvjh96PXhSv8viy/O5FmXt5SW34ppHPxo44LzZjQuP40s7svyRbqHYelbHlmj5WR2ssr3OzOcdXEWPN19vG6nws6ajiSy+llRU0rcOeYPVS3JY3FLoIzhuMthY4lhe2LX6zJbZQ7jYuGvFqr4J291qrc/UuasleWDm1tw31Ne/qSPhQxGSSeKgjOhDXuF7B73uIYHdQtf73UF10hUk5qkiPoajCNOVeX77Et/eWOg2Fo44gx8QkdbnveXXJ6SLHmjsUuFlRjHDWSuq6WuZz1oywuhf3eUuSI4TizWxOPJuLNCd8UhsWu42INvVCr8O2uUo7mXKkr6ybktqz3r3N7wtGTloL35LIctt2e/O6r5ctvaumktbWjwOOgtTUnj6s+HR45JzCMOwmrjEcMcLjbVpu2YcSSTn9u5SqULapHEUvUg162kKE9aba/+fYttPCGMaxu5oDRfgBYKYlhYKqUnKTk+krvhDxPkKF7QedL+wb2O+cfdBHaQot7V1KT/ewsNE0Pi3Cb3R2+3iVLZbYRlXTNqJZXsLi7I1ob80GwJuOkg+yyg21jGpTUpN7S2vdLSoVnThFPBvYj4NY44ZHxTSue1rnMaQ2ziBfLoOncutTR0VFtN5OFLTc5VIxnFJN/s+vgnxTNHJSk6tPLR+q7RwHUHWP31nRtXMXB9BrpyhiUaq6dj9PDyI7bXGzX1LaCB7RE11nvcQGOeN7ifMbr2m+/Rcrqs61RUoPZ0/39EjR1qrWk69RfM1u6Uvd+HeXfBTSUkDYI54bN3kvZdzjvc7Xef/SsaSp04qMWikuP5Feo6kovb+ns/RWvCyzNBTyjVoe5txqOc241+6VD0mswiyy0E8VJxe/Hk/8Asntk8ZgdQwnloxycTI5czg3KWNDTmvuGl+xSrarB0k87kQb62qxuZLVe1tr95KJFXtqMcbNHqx0zQ08Q1gZfsOW/tVaqiqXesuJeSoyo6OcJb0n4vJYvC15ND9t8D1K0lza6yv0Fz0ur1RYtj/IKb7Jn8lLt+aj1Fdf/AHNTrZQPCLTCLEWTSMLo5BG9w3Zgwhr2A8coHvBVd9FRrqUlseC/0TPXtXCLxJZ7M7n3+RaqLZ3CpmCWOOJzSL3Er9OojPoeoqbG3tpLKSKupe39OWrJtPqXsb2zuG0LHvkogzM39lI6N7njWzi25JHQNy6UaVGLbpr9HC7r3UoqNfOHtWUl2k+pJAKd4VPIW/bM/peoGkeZ7S30J9w+p+hueD5gdhkLSAQeVBB1BBlk0IXSy228e3zZy0q2ryTX68kUvEY34LiIkjB5F/Oa3zoyedH2tO77vEqBNO0r6y+llzSlHSNrqy+peD6H29PaSvhRjE1PTVcRzRjMMw3WlDS13UOZbtIXbSK14RnHcRdCy+HVqUZbH7Zz5n32YwnDKunY7ko+VDQJmmR4cHAWJy5txOoK2t6VtUgnhZ6Tne3F9Qqtaz1eh4W7uJbD8Fw1lS1sDY+XYDKAyR7i0NIFzziBq4aHiu8KNup/KtqItW6vZUW6jeq9m5LPh+io+FKTLXxOHRCxw9kkhUDSDxWi/wBLzZbaFWbaS/b8kdDosep5YRO2eMMtd2ZwaWcQ8E80hWsa0JR1k9h5+paVoVPhuLz1b+o5xBL/AMRxtssdywSNkB4MhDeceALmj3wqqL+Pda0dy9D0Uo/xNHuMt+Gu1+y8jY8JcD4a6GrDbtIYW8M8Tr5SejTL+PBbX6cKsanQc9DzjUt5Uc7dvc0dAoMdp54hMyaPLa7szgCzqeCeaQrOFaE46yZQVbWtTnqSi8+fUc3xmcYli8bYOcwFkeYbixji57+zV1uOnFVVVqvcpR3I9HbwdnYydTY9rx+3sSOkYjLTSu+STmJznNEgjltqLkBzb7zdp3ahW03Tk9SWOo85SjWgvjU8pLZlHOdu9naeiEc1NIWuL7CPPctABPKMN8wsQBvPzhu6am8t6dHEoPD4HotGXta41oVVlY348H0HQtlat81FBLLq9zAXHzugO9oAPtVpQk5U4uW88/e0407icIbk/wCrsPjtFsxFXFhmfKMgIaIy0DnWuTdp10C1r20a2NZvYb2l9Utk1BLbx/0lKKlbDEyFg5rGhjb8Giwv1rtGKjFRXQRalR1Juct72n3WxoVmj2Ip4ZXSxSTtLmyMIa5oAbICCBzbi1wRr9UKJCyhCTlFtZyWVTSlapBQmk8Ye59Hb3ml4taTz6j3mfoXLk2lxf8Aew78uXHCPc/cx4tKTz6j3mfoTk2lxf8AewcuXHCPc/cs1ThMUtP8lkbmjytZY7+aBY3G46XuFMlTjKGo9xWwuKkKvxYvD3lXj8GlKH5jJO5t75SWC/UXBoNuyxURaOpJ9JZvTlfVwkk+O33JRuxtM2qbVt5RrmlpYxpaIxkaGABuW9rDiuv8Sn8T4i3+BFek6zouk8NPO3p2vPE3docAirmNjmdIA12ccmQDexGtwdNV0r0I1liRxtLudtJyhjbs2m5htE2CFkDCS1jQxpdqbDiR0rpCChFRXQca1V1Zuct72nzxfCoquPkp2Bzb3HQWni0jUFa1KUakdWSNqFxUoS16bwypnwY0178tUW7Y79+RQ+TaXFlry7Xx9MfH3LPgeCQ0UZjgaQCczi4lxcbAXPDQDdYKXSoxpRxErLm6qXEtaoySXUjkbj+Cx1sQhlLw0OD/ANmQDcAjpB01XKtRjVjqyJNrdTt568MZ3bT64NhjKSBtPGXFrM1i8gnnOLjcgDpcVmlTVOCgug0uK8q9R1Jb3w7j44/gcVbGIps1g7O1zCA4HdoSDoQVrWoRrR1ZG9rd1LaetDxPGF4BFBTmku+SI35s2V1g7e0WA0vr2kpToRhDU3r9ma15Uq1VV2KXFFfqfBpSuddsk7B5oLXAdhc0nvJUZ6OpN5WUWENOV0sNJ/vb6Mmdndk6ehcXxZy8tLC+R1zlJBIsAGjUDo6F3o2sKO2O8h3ekK1ytWeMb8L+5KV4TPpGH7KP82RV1/z8epebLrQ/2k+t+SLHifg8pZpDK10seY3c2Mty3O8gOacvZu6lMqWFKbzuK6jpmvThqtKXXnPmTWAbPQUTS2Fpu62d7zd7rbrnoHUAAu9GhCksRRCuryrcvM31LoRuYjh8dRGYpmB7DvB/mCNQesLecIzWrJZRxpVp0pa8HhlRl8GVKXXE1QBwuw26gSz+d1C5NpcWWy07XSw4x8fcsWBbPQUTSIGan573nM93aegdQsFKo0IUliKK+5vKtw81H2dBqbSbIwV7xJK6Rr2tyAxkatBJsQ4Eb3FaV7WFZ5lvO1npGraxcYJNb9v/AFgjaDwcUkbg57pZLfVeWhp7Q1oJ77LlDR9KLy8skVdN3E1hYX7W/wAS4saAAAAANABoAB0AKcVDbbyzKGAgCAIAgCAIAgCAIAgCAIAgCAIAgCAIAgCAqW1OyDq2pZUNnawMY1mUsLr5Xude9x534KFcWnxainnGC1stJK3oum45y29/6SLappVBAEAQBAEAQBAf/9k=;" vertex="1" parent="1">
          <mxGeometry x="130" y="140" width="70.58" height="64" as="geometry" />
        </mxCell>
        <mxCell id="hfZZUyvQ45edJxOSnpxv-18" value="" style="shape=image;verticalLabelPosition=bottom;labelBackgroundColor=default;verticalAlign=top;aspect=fixed;imageAspect=0;image=data:image/png,iVBORw0KGgoAAAANSUhEUgAAAOEAAADhCAMAAAAJbSJIAAAA4VBMVEX///8AAABcTuVAQLJVRuRRQeSfmO6zs7P7+/tKSkrR0dE+Pj7f3980NK+Kiorv7vyCeOqsrNl0dHQ0NDTBwcEsLK25ubne3vAfHx9NPOOsrKxYSeSYmJihoaHy8vLOzs5iYmI3NzctLS1CQkK6tfNLS0uQkJApKSl4eHjp6ene3t5XV1epo/Cak+5mWebV0veFhcrh3/psbGwPDw+/u/RtYOeKgut6b+nLyPa4uN9FMuJbW7scHKrw8Ph9fcejo9bExORkZL5FRbSwqvF0aeiIf+uTi+2VldFubsFAK+IQEKm16aURAAAFpElEQVR4nO2aaXeiSBSGS9SIqJhO0LggLokmxGS6o5PuTKadTm+Z5f//oKkNKBDUE0H6eN7nQ04B5fU+QK2GEAAAAAAAAAAAAAAAAAAAAAAAAAAAAAAAAAAAAAAAAAAAAAAAAAAAAAAAAAAAAABy4SHvBDKne7/KO4WM0Uqlq7xzyBZN08q/vc87iyyhhlq/e9rMO4/s0DTheKLnnUlWaJJS//e8U8kIzaf8eJzNMTCkr+rHY2yOmkr5U97pZEDIsH9K7p421f7j3aHySo+o4cnz6UVS3Ys/Px/O0LJNc9Az9g+0ZljqJ0zkVn+1io1DGbYLktneodYNtfiJ3JdGoxhn2J7U1hnvObr6goXKfoFIvGHMRO6lSP1iDSuFOPY0DALt/5rGG9KR46cyclx8bRWLBzS0RJDxdFJw9wrE6McbMsc7mebqg/Q7mKHNYzh7xfA57SYY+hO5d41G8cCGJgux2CuEwpNWTjDUtO6jvvoW+MUaeojOIZ2cuOFNOrEY38ulBEOt27xoFXczrPzChmT12u3HG5bfauhYA9u0K3V5qNcpvNSj17wDp8f+ukZlMDPtQUV2KvW6e8PfUtf/EAtHq/RuvfDsCm+mQ0Mc8LMurTVry08YPdvsBf3Uw49umobuyGuP1xY/MWTlIXFmBdo59kQ3wjwImSmN95wPDeEGzc4YU//QFA1cttP2OZ0R6OzAJYa5FFUmOnEGNVm/HST4VCqlZmioKdr+mfaA/TVETcMUHdJNyKcdNewQr2eVLPlj6dDS/PacKQvDm8ugylyNqY42d+V+OoZO+CkMw86W2vvWxQMNcCKGlyRag3fTHf9oJAwTCc36mj+fUzGUt3C+GHtJqoa2ajgU7+94Opav2CBiOI++teypqYadLYbzcJbvX9MwFJHZrebps+cSGE5vFcOFQ/ShHNjr3HFEeyVd9KVntETLovYZe9uGvMpSNVz2FMORfeaXqzf2UtyBKPflTYatHQwNT4uyEA/KN5waJJgjjMIzskGQkDTk8KRroizCuIEh64yl4YK1BiL6pHGFfb3l3/MQq/tuP9Gw9XfyXMU3tLwb7WXd81JbWkrN8W0kwDBISDXkXchA1uGPxfIMTX5OGBrK/ThT70dMqnLkWDds/bNpG8c35JOba3GS9xJ25MsqSoXthjXvWTEm7KAtDeXCShjWFUNzo+HJlTqRUwxb3142+EUNCxNOJ9HwfC2AEW94uWZYkYbWGw2f2aYiHTnCho2tq/uIocIWw96io1Q+gGGp3/24oiMHb46e4ecPW3+heqOh0wlXPoQhXxrSkeOx7Bm2viZuTu1iONtkWI1UPowhNdOeCLkqlZhho/Gy3S9qOLECbjcY1qO341CGdN3044Ho9/82L/77sotf1HAcvphoyCt39EidRMNrdtBOx5C+qq8r8rBq7vCChg2HMYETDfmAKVaCCaPFXMlZyFgpGWpaqfx9R7uQocsL4T2yRMNe4JLwDMXySkx/bK+ckiFrjrv/yB/sYogGVXF1xx1WzM5gk6Hl5ewOOvGGcsI3s6yKWHWyGVxqhlp39x+jAsPQek7sKCUauoUIa4ZkHKnRTtWw/BZD0R+Ekt5jtIjeBH46F0Nlje+Eb7sTZzhZy38+jTckrjopENl7M/DAUM7jFxkaWrVqteoNEpa3UXO94LtBt6GL7GDk5887y+XCIO3LavWSnxuwkrI678mNmvFMLrjmNEJtKA1ZuJq8YLJP2qLMv3SanmEUtqPm7rQx7NTdrdvbOg3npLMJnprhL8vxG953j91QvwvvYuSdTxbIpeERG8ql4VEb0qWh/DnqeA3p0lDuYuSdSIY8fOoeuSHfVDxyQ0Luno/dkDSP/d/cAQAAAAAAAAAAAAAAAAAAAAAAAAAAAAAAAAAAAAAAAAAAAAAAAAAAAAAAAAAAAMiK/wEWaXHi2zWvwgAAAABJRU5ErkJggg==;" vertex="1" parent="1">
          <mxGeometry x="220" y="140" width="70" height="70" as="geometry" />
        </mxCell>
        <mxCell id="hfZZUyvQ45edJxOSnpxv-22" style="edgeStyle=orthogonalEdgeStyle;rounded=0;orthogonalLoop=1;jettySize=auto;html=1;exitX=1;exitY=0.5;exitDx=0;exitDy=0;" edge="1" parent="1" source="hfZZUyvQ45edJxOSnpxv-19" target="hfZZUyvQ45edJxOSnpxv-20">
          <mxGeometry relative="1" as="geometry" />
        </mxCell>
        <mxCell id="hfZZUyvQ45edJxOSnpxv-19" value="" style="shape=image;verticalLabelPosition=bottom;labelBackgroundColor=default;verticalAlign=top;aspect=fixed;imageAspect=0;image=data:image/jpeg,iVBORw0KGgoAAAANSUhEUgAAAdAAAAG7CAYAAABzbsSZAAAAAXNSR0IArs4c6QAAAARnQU1BAACxjwv8YQUAAAAJcEhZcwAADsMAAA7DAcdvqGQAAByHSURBVHhe7d3drmzXmRbgvgBugAvoK0CiQWoJDpAaEH+nICFOgEPUoqWOEC3oBHEADQgEoluNWkggJJoD6BD/xU5sx/b2X+zYcX4cx47jJHYQRNibFrGITbzwt1kjPVL5qmrW2GuPGmPU80ivYu+aa9asOec33qray8rPXQEAJ1OgANBAgQJAAwUKAA0UKAA0UKAA0ECBAkADBQoADRQoADRQoADQQIECQAMFCgANFCgANFCgANBAgQJAAwUKAA0UKAA0UKAA0ECBAkADBQoADRQoADRQoADQQIECQAMFCgANFCgANFCgANBAgQJAAwUKAA0UKAA0UKAA0ECBAkADBQoADRQoADRQoADQQIECQAMFCgANFCgANFCgANBAgQJAAwUKAA0UKAA0UKAA0ECBAkADBQoADRQoADRQoADQQIECQAMFCgANFCgANFCgANBAgQJAAwUKAA0UKAA0UKAA0ECBAkADBQoADRQoADRQoADQQIECQAMFCgANFCgANFCgANBAgQJAAwUKAA0UKAA0UKAA0ECBAkADBQoADRQoADRQoADQQIECQAMFCgANFCgANFCgANBAgQJAAwUKAA0UKAA0UKAA0ECBAkADBTqZ9//vh1f/6Z03r37t1Reu/tLzj1z9whOfFpFB80vPPHj1K1999uq33nr16sXbP7ieYlahQCfyxv/+/au/8uKj6aCKyPj51Gtfuvr9Dz+4nmhmp0An8fkfvHP1J2/dnw6liMyTP//cw1cv/6//eT3ZzEyBTuC//5/3r/7U0w+kwygi8yVK1CfR+SnQCfzq155Lh1BE5k18ncvcFOjgnn/vf6TDJyLzxy8WzU2BDi5+ey8bPBGZPzHfzEuBDi5+BT4bPBGZPzHfzEuBDi7+O7Js8ERk/sR8My8FOrhs6ERknTAvBTq4bOBEZJ0wLwU6uGzgRGSdMC8FOrhs4ERknTAvBTq4bOBEZJ0wLwU6uGzgRGSdMC8FOrhs4ERknTAvBTq4bOBEZJ0wLwU6uGzgRGSdMC8FOrhs4ERknTAvBTq4bOBEZJ0wLwU6uGzgRGSdMC8FOrhs4ERknTAvBTq4bOBEZJ0wLwU6uGzgRGSdMC8FOrhs4ERknTAvBTq4bOBEZJ0wLwU6uGzgRGSdMC8FOrhs4ERknTAvBTq4bOBEZJ0wLwU6uGzgRGSdMC8FOrhs4ERknTAvBTq4bOBEZJ0wLwU6uGzgRGSdMC8FOrhs4ERknTAvBTq4bOBEZJ0wLwU6uGzgRGSdMC8FOrhs4ERknTAvBTq4bOBEZJ0wLwU6uGzgRGSdMC8FOrhs4ERknTAvBTq4bOBEZJ0wLwU6uGzgRGSdMC8FOrhs4ERknTAvBTq4bOBEZJ0wLwU6uGzgRGSdMC8FOrhs4ERknTAvBTq4bOBEZJ0wLwU6uGzgRGSdMC8FOrhs4ERknTAvBTq4bOBEZJ0wLwU6uGzgRGSdMC8FOrhs4ERknTAvBTq4bOBEZJ0wLwU6uO9///sisnCYlwIdXDZwIrJOmJcCHdw777wjIguHeSnQwWUDJyLrhHkp0MFlAyci64R5KdDBvf322yKycJiXAh1cNnAisk6YlwIdXDZwIrJOmJcCHdz3vvc9EVk4zEuBDi4bOBFZJ8xLgQ7uu9/9rogsHOalQAeXDZyIrBPmpUAHlw2ciKwT5qVAB/ed73xHRBYO81Kgg8sGTkTWCfNSoIPLBk5E1gnzUqCDe+utt86a+A+933///eujgXXEfR33d3bf9wzzUqCDywauV957772rjz766PpIYD1xf8d9nt3/vcK8FOjgsoHrkXfffff6CGB9t2/fTuegR5iXAh3ct7/97bPkgw8+uD4CWN+HH36YzkGPMC8FOrhs4HoELk02Bz3CvBTo4LKB6xG4NNkc9AjzUqCDe/PNN88SuDTZHPQI81Kgg8sGrkfg0mRz0CPMS4EOLhu4HoFLk81BjzAvBTq4b33rW2cJXJpsDnqEeSnQwWUD1yNwabI56BHmpUAHlw1cj8ClyeagR5iXAh3cG2+8cZbApcnmoEeYlwIdXDZwPQKXJpuDHmFeCnRw2cD1CFyabA56hHkp0MG9/vrrZwlcmmwOeoR5KdDBZQPXI3BpsjnoEealQAeXDVyPwKXJ5qBHmJcCHdw3v/nNswQuTTYHPcK8FOjgsoHrEbg02Rz0CPNSoIPLBq5H4NJkc9AjzEuBDu611147S+DSZHPQI8xLgQ4uG7gegUuTzUGPMC8FOrhs4HoELk02Bz3CvBTo4L7xjW+cJXBpsjnoEealQAeXDVyPfPDBB9dHAOv78MMP0znoEealQAeXDVyPvPvuu9dHAOu7fft2Ogc9wrwU6OBeffXVsyT+buZHP/rR9VHAuuI+j/+cJJuDHmFeCnRw2cD1Siwq77333p2vt2A1cV/HJ89zlmeEeSnQwX39618XkYXDvBTo4LKBE5F1wrwU6OCygRORdcK8FOjgsoETkXXCvBTo4L72ta+JyMJhXgp0cNnAicg6YV4KdHDZwInIOmFeCnRwX/3qV0Vk4TAvBTq4bOBEZJ0wLwU6uGzgRGSdMC8FOrivfOUrIrJwmJcCHVw2cCKyTpiXAh1cNnA982vPP371C098WmS5/Nmn7r/6O889dvXCK19O7/1eYV4KdHCvvPLK2fJ3P15csoVHZKX8xVsPXH3xyy+nM9AjzEuBDi4buB75ty8+ky42IivmEx+/WczmoEeYlwId3Je//OWz5FeefTRdaERWzJ9+6v50DnqEeSnQwWUD1yPx90PZQiOyarI56BHmpUAHlw1cj2QLjMjKyeagR5iXAh3cyy+/fJZkC4zIysnmoEeYlwIdXDZwPZItMCIrJ5uDHmFeCnRw2cD1SLbAiKycbA56hHkp0MG99NJLZ0m2wIisnGwOeoR5KdDBZQPXI9kCI7JysjnoEealQAeXDVyPZAuMyMrJ5qBHmJcCHVw2cD2SLTAiKyebgx5hXgp0cF/60pfOkmyBEVk52Rz0CPNSoIPLBq5HsgVGZOVkc9AjzEuBDu7FF188S7IFRmTlZHPQI8xLgQ4uG7geyRYYkZWTzUGPMC8FOrhs4HokW2BEVk42Bz3CvBTo4F544YWzJFtgRFZONgc9wrwU6OCygeuRbIERWTnZHPQI81Kgg8sGrkeyBUZk5WRz0CPMS4EO7otf/OJZki0wIisnm4MeYV4KdHDZwPVItsCIrJxsDnqEeSnQwWUD1yPZAiOycrI56BHmpUAH9/zzz58l2QIjsnKyOegR5qVAB5cNXI/8mSfvSxcZkRXzSx/f79kc9AjzUqCDywauR3716c+lC43Iivlbtx5O56BHmJcCHdxzzz13ljz53LNXf+Gp+9PFRmSlxH3+2LPPpHPQI8xLgQ4uG7heiUXll289cufrrWzhEZk5cV/HJ89zlmeEeSnQwWUDJyLrhHkp0ME9++yzIrJwmJcCHVw2cCKyTpiXAh1cNnAisk6YlwId3DPPPCMiC4d5KdDBZQMnIuuEeSnQwWUDJyLrhHkp0ME9/fTTIrJwmJcCHVw2cCKyTpiXAh1cNnAisk6YlwId3K1bt0Rk4TAvBTq4bOBEZJ0wLwU6uGzgRGSdMC8FOrinnnrqbPnN//pfrv7m7/zrqz/+G5+8+vlPfUJkqfziP/nUnfv7tz/ze+n93yvMS4EOLhu4HvkHv/sf0kVHZMV88j/++3QOeoR5KdDBZQPXI/HuPFtoRFZMfMuSzUGPMC8FOrgnn3zyLMkWGZGVk81BjzAvBTq4bOB6JFtgRFZONgc9wrwU6OCygeuRbIERWTnZHPQI81Kgg3viiSfOkmyBEVk52Rz0CPNSoIPLBq5HsgVGZOVkc9AjzEuBDu4LX/jCWZItMCIrJ5uDHmFeCnRw2cD1SLbAiKycbA56hHkp0MFlA9cj2QIjsnKyOegR5qVAB/f444+fJdkCI7JysjnoEealQAeXDVyPZAuMyMrJ5qBHmJcCHVw2cD2SLTAiKyebgx5hXgp0cI899thZki0wIisnm4MeYV4KdHDZwPVItsCIrJxsDnqEeSnQwWUD1yPZAiOycrI56BHmpUAH9+ijj54l2QIjsnKyOegR5qVAB5cNXI9kC4zIysnmoEeYlwId3Oc///mzJFtgRFZONgc9wrwU6OCygeuRbIERWTnZHPQI81Kgg8sGrkeyBUZk5WRz0CPMS4EO7nOf+9xZki0wIisnm4MeYV4KdHDZwPVItsCIrJxsDnqEeSnQwWUD1yN/7B//errIiKyYP/qP/n46Bz3CvBTo4B555JGz5K//9r9KFxqRFfNXf/Ofp3PQI8xLgQ4uG7geue+hh65+8Tc+mS42Iisl7vNPP/hAOgc9wrwU6OCygeuVWFT+2m/9iztfb2ULj8jMifs6PnmeszwjzEuBDu7hhx8WkYXDvBTo4LKBE5F1wrwU6OA++9nPisjCYV4KdHDZwInIOmFeCnRw2cCJyDphXgp0cA899JCILBzmpUAHlw2ciKwT5qVAB5cNnIisE+alQAf34IMPisjCYV4KdHDZwInIOmFeCnRwDzzwgIgsHOalQAeXDZyIrBPmpUAH9+ijj6ZDJyLzJ+abeSnQwb3wwgtX999/v4gsmJhv5qVAB/f666+ngyci8yfmm3kp0MHdvn37zlc92fCJyLyJuY75Zl4KdAKvvfba1X333SciC+XNN9+8nnBmpUAn8NFHH10988wz6RCKyHx56aWXrqebmSnQSfz4xz++8/cl8bVPNpAiMn4ee+yxq7fffvt6qpmdAp3MD3/4w6tXX3316vnnn7/zf4X0mc98RkQGTczorVu3rl555ZWrt956684bYdahQAGggQIFgAYKFAAaKFAAaKBAAaCBAgWABgoUABooUABooEABoIECBYAGChQAGihQAGigQAGggQIFgAYKFAAaKFAAaKBAAaCBAgWABgoUABooUABooEABoIECBYAGChQAGihQAGigQAGggQIFgAYKFAAaKFAAaKBAAaCBAgWABgoUABooUABooEABoIECBYAGChQAGihQAGigQAGggQIFgAYKFAAaKFAAaKBAAaCBAgWABgoUABooUABooEABoIECBYAGChQAGihQAGigQAGggQIFgAYKFAAaKFAAaKBAAaCBAgWABgoUABooUABooEABoIECBYAGChQAGihQAGigQAGggQIFgAYKFAAaKFAAaKBAAaCBAgWABgoUABooUABooEABoIECBYAGChQAGihQAGigQAGggQIFgAYKFAAaKFAAaKBAAaCBAgWABgoUABooUABooEABoIECvfa3f++Nq5/75cfv5E/8y5ev/5Sb9usPvXXn/P7hv/f0T853JP49/jweZy1xXct1jjmDVSjQaz//D5/7qQX9iW/dvn6Em/DPHv/ez5TmvvzOs//t+qeY3Rs/eP+nrm3cA7AKBfqx//zKD35qyCPeKd+c+FRZn9tYRP/yv/v61d/43dd+kj/yT1/8yeP7CjSuU/ycRXge9Tc7JXEdGYOZujsK9GNxA5XhLgu5G+pmxCf5P/SJJ39yfg99RRufVqJM9xVoXbLMoXyzU1+7P/dvvnL9KOdmpu6OAv1YWeDj72rqMvVO+e5FIZbzebef6g37XOpvduLalzKNeWMMZuruXHyBxt/NlRsoPh3VQ++d8t2rBzQ+Yd4Nwz6X+s1ofBNRf53rl8XGYKbuzsUXaJRkuYHKAh9f38a/e6d89+oBvdtfzDLscylzFJ88Q1z/cv38pvsYzNTduegCrX9DsP60Wb9Tjk+oh9Q34JbslnL589jPMce2LcdSHo8FK15X/RV1JraLTwv1byLHz8TP3u1vxNZvUFq+wq2/Aj6UfccZ1zieN85JOQ+RWNy3/mcz5WfiWEI817H/NCP2G69997e74zhO+fQV25brmu2jPj/HrtW9vM67dr/ZKerzduo3EuX4d89HvJ54DYf+yuXYfXBozu/2HopzW36m3EP7HNu2frxcszLn5Q1LJM7JvuO625niD1x0gcYNVm6WeoDihix/HgNyyO4wH8vuYlv+PPZzzLFty7HE/8ZiUg/7vp+Lc7C73W5i0WpVD3w8z6lDeTfDHtf02GuLxHk5tJiX7eJY6num/vMi7p16IduXfdewiP3slu9uYtGsz8+hc3uvr/OuOLay3/rc1ucve+Oxz5b7oL4OtS33wb7rcRP3UD0D+46xOLZt/Xj887HrGtdh15ZzGTl0P/H/XXSBlgUqbsBd9eJ1aHGNooobbV/qBSMb0kOP7Tq2bfx5eTwSr6u8MYjXEMdSq48tto3BKscdi1tdBKcsdrvqTx2RWKgPndNaFEk5pvqalD8r2d1f/doisZDEuSjb776+2Pe+YyrbxHHHeYpty6edOL5yjkPsO7aN7eI54zjKc8Y/18+5bzGN46i3i2tZ76c+9niesl08lul1nYs4/rK/3Teg9WNxHreoyziOP65DOf7yGmKb7NiP3QfxeOwv/nzXsZ/dPXf77qHYtmyz75oXx7atH4/nj/+NY4h/LsdV7tN9+2mdKX7WxRZo3ETlxsmGp9yckWwwtyo3aNzQ2Q1ZnmNfKdaObRt/Xp4rcugrrXj9Zcj2DX782bHj3yJ+brdEY38x2Kfss7y+yCH1azt2HuLal31m90Eoj8e+9p2rIhaeQ68r/rwcWyx8mS3HFPupF79IPPeunte5qIsn/nlXfS8cujYhzmXZ9ti53xXno/zssftg103eQ/VxZKVYO7Zt/Xhk3zmpt9t3n4WtM0XuYgu0Hsy42XbFTVkej5u0Rf0c9aeUWnn8Jgs0cmxQ66GPxWKfehDv5o1EiJ8vi1JJ/PvW/W4d9vq1Zdd2VymPSHYuymNb93dMfELY93zx7+WxY/dE3KP1+cyO7RzXuVynOLZscY9ZKM8V52Kf+vVFCWT7OqS+X04pz3CT91B9bm+yQOPcHLqmW96obJ0pchdboOWrl0Pvzk55p7wrti8/m70rLco2xxbLcGzbehgODVYo2x06tqIsYrtfx7WIRbAukJJYgI6d463DXrbZck5D/YkpK4/y2KF75RSH3rzF8+97LFOfy2z78liv61y/ATj0nOW54n/3qc9F9kn2kK3zt0/52Zu4h46VYu3YtvXjx17Xlntp60yRu8gCrW/CQ++A66E4tN2uKIm6oA+9cy773zKox7bdOgz169/3ybhW9rvlGLeKhTYWgHIckVhMDy2UW15f/dqyMszE9Sk/ky1K5bFTX3/sN44njiMWw/j5+pNKZHdhK6/xULHUDpXxOa5zfTyHnrO+9vu2q9/AnmpLeexTn7ebuIfq/d1kgR47ti3blmse4XQXWaD18B761BNDUd4pn/Lp49inglrZbsuidWzbrQtgvbickq2L+imiSOshjufYd03q7fap3/QcO/e18jPZuSuPHVv8inje+lgPZfcYyxuvY9ewOFSg57jO5fiP7SOOtTxf9qYlnHouavWMn+qm76H6td5kgR47ti3PW9+nnO7iCrQuxVOz5V18bFO23/KptWy7ZZE4tm0ZhmP7qhfdU3Ov1Avesdd36DgOFcoh5Wey5y6PHVv8Qr34RqIEYp/xs1FocUz1a909xvLnx65hcej19r7O9YJ9amIud5XHtp6L2pZ7ZZ+bvofq83LsHjq2bf34sWPb8rx3c574+Jpf/+/F2F3gTsm+d8pFXc5bf/Go7HvLInFs2zIMx/ZVLxBlUd+ae2X3jU22oG4Z9pte/EJ57JTFL67/vuc/dIzlz49dw+LQvnpf5/qNwanJvrovj209F7Ut98o+N30PxT7KY6fcQ9m29ePHjm3L897NeeLja379vxej/nuVuKm25NjCXrT80lHZfssicWzbMgzH9lUP1pZP1b3Uw5wtDvXj+9SvLVuUM3FNy89k3xqUx+JeOKQukEO/xBX7Kdvtvs7yd6Rb34Ad2lfv61zmJD51l9k5lPqvOrLXW6537O9Usf+y72O/ULfrpu+hen9xXIcc27Z+PP75kC3Pu2Wm2O+iCrT+DcGtC1SoF8Z9A1X/fVP881ZlwTy2SNTHvq8gyzDse7yo97Xla+Ze6mHOFoctw14vZFt/m7T+2v3QJ6Fji185vmP31qGvcOs3YVsW/kPnrOd1jvPW8lzl7zkju6+3Pk9b35AW9fGcMo/hpu+hen/xmg6pj1uBju+iCrS15Opfic8Wxxj88u47bshTbF0wYwDKdvueowzDlmMoxR3HHQN+r8SCsGX/sU39ST+zddjr7Y4tMqFsv+9clH1tLdBDb4Z2X+fu8Z1SRPUCme0r9LrOLd++hHomD31y23JP1+rz3PLab/oeKsdy7I1y/bwKdHwXVaD1u91TB+rQO+V6kTpUgpl6wdy3SNTbHNquDMO+x2v1PuP4D52PGMTWTzBxLHHu4vn2ieeuP23se5cex1C2ObR41AtHXJNDC3r9vPveVJXHjxVoXSLZ8cXrLPfKvu1im7LYRvadt3hN9XbZvkKP6xz3fP0cp6h/NiuXck9HDn16i2PfvX71m85Drz2O4VB538Q9VG+z7z6qt9m3XX1c2fWu1dvue86tM0XuYgq0/hS59WuZWv1Oub4Z6yGNmzFuwmOp7S6YMeix6JVty1DVC8m+gizb7Ht8Vz2wcQy7xx+v+dR97io/X54jzn2cs5I4ht3Xv2+h2y2D+NosjjP2E/9bq7eNxPOU7ctrq98UxeP7lG3ieQ6J/ZZt4zWV49p9vvqcxGO76q8DI7vHHtcp9l/O56F9hXt9nevZiH8+1aHXsDsfcQ7jOcqxx3UuP59dn937r37tcU7L/Ze97pu8h2L7el9xzGVf8b/1+S/bZK+n3k/88yH1tvvu3VNmip91MQUag1NulLhpTpW9U65L+ZTsyj5N1CmlUv593yJXD+FW9eJ6KPsG8Jg414deW5047n3lWcS5yH42G/atzx33xiFluy3n4Nj5jGOK/ZR/37dI1Qtblnhdcd9s2Ve4l9e5vianfgMT6tealVDsc991r5OVd9xPW157FFrmpu6hcOyaxnHGNSz/nl2L+vFD1zsc21dxykzx0y6mQOshOLZI71O/O4ybq/73U5KJRSIGqH5HGzd23PjleMuf7yvIcjz7Ht8nXsvuc5f9xMLQsijW4vhj8Yjn2B3W8hxbh7UsiPWxxuK37xjjz+MclnNTEsex9bWVn9laLvEuvv5UFfde/Ht5jbGf8tih173vnojjLvfE1n2Fe3Gd6zeRcWwt4rWU+Yz/La9tV9xDcR7rWY7XEq+p5bWX6xL7PeQm7qEijmP3NcR+yzHE4+XPs/utfnzLaz60r+LUmeIPXNTfgcJqTilQ4GYpUJhYfFIoBQr0pUBhUvVXn61fnwLtFChMqv76tuW3X4G7o0BhMFt+KSYKs5TnoV+8Ae4dBQqDKb/tGb8VGb/lWf+3h/GpM76uLeUZ8ctDcB4KFAZT/2LQoUTBKk84HwUKA9r3381GaW75bxeBe0+BAkADBQoADRQoADRQoADQQIECQAMFCgANFCgANFCgANBAgQJAAwUKAA0UKAA0UKAA0ECBAkADBQoADRQoADRQoADQQIECQAMFCgANFCgANFCgANBAgQJAAwUKAA0UKAA0UKAA0ECBAkADBQoADRQoADRQoADQQIECQAMFCgANFCgANFCgANBAgQJAAwUKAA0UKAA0UKAA0ECBAkADBQoADRQoADRQoADQQIECQAMFCgANFCgANFCgANBAgQJAAwUKAA0UKAA0UKAA0ECBAkADBQoADRQoAJzs6ur/AfQzt/NckVsrAAAAAElFTkSuQmCC;" vertex="1" parent="1">
          <mxGeometry x="320" y="133.81" width="80" height="76.38" as="geometry" />
        </mxCell>
        <mxCell id="hfZZUyvQ45edJxOSnpxv-20" value="" style="shape=image;verticalLabelPosition=bottom;labelBackgroundColor=default;verticalAlign=top;aspect=fixed;imageAspect=0;image=data:image/png,iVBORw0KGgoAAAANSUhEUgAAAOEAAADhCAMAAAAJbSJIAAAAsVBMVEX///8eiOUVZcCQyvlktfZCpfUmi+b2+//w9vweasIeieZdjM5fs/YFYb9ijs9ot/ZAovOZzfkAgeQaeNQAWbzg7/0AXL0Ag+QXbch8tO6Ssd0dg+A8ne9XoeuCwPWTzfpOqvaiyPJmq+5KmumUwPG71/U5keZUn+qGwfVFlujn7vjX4/Pq9P7O4vimy/J8ufKFp9klb8SuxeZMg8t8oddqldI7esjC1OzI2O6eueEAUrpmlkEiAAAHU0lEQVR4nO3cfXeiOBQGcBGr1mrb0WrqMI5b7aC2dunLdrY73/+DLaBWkAA3ySW59OT5Z87x7Hbm530CEqGNho2NjY2NjY2NjY2NjY2NjY2NjY2NjY2NDSCdrlo6pgGFebyf+W3VbO7JIn9thsxBCGO/TFO42c6GGLw4Q4rEpzbK/PZh9Ir6hOkLhfemQafp4gIdZ2NadJqVhyxsE6vp33gHmYOwa9qUyhi7o+SE6B2lJrxD7ygx4Ra/o8SEFXSUlrCKjpISjquYICnh8qsLq+koIWEF53piwlk1HaUjrKqjZIRiHfUYY54H/F+ICOHHUY/5s0XwM8x0tnQAShpCcEdZe7F253M3yjz8Myj/GERCCO0o84O97jNzd1YHIfTz6MI98cXG9bLwDaIgBHbUX3N8sXFR9A4REI5BQG+T44uIAW0h6DjqLfOBxUTzwjvQYWZT4IuJuW+TceEY4nOcYmC0FvPeKONCUEdZUNTRHXFDVAg7jq5Kga67pil8gJ0o1uVAd55z6jcsLD5ZHzIDjDAMv+9mhcBzPWSE4RBX9ITAvScfNkI34BbCqBB2zeQtgEKX3AyBHWUBEDhfEhPCPo+GQugI+UdTg0LoNVMbLJzyfqI5Ifi6Hnqgcd2fvEONMSF876nwqiItxJ/hx/P7hVwufShQRIg9w4e3m8lAMiMw0Cm49K1Y+NAcNGVz24ML4euQe8pXEL7IA5uegNADH0u5+zXywtcbeeBIAOgw6Aixz4dvejoaznAKHSL36CUt7JzLj1Ckow7s+jfKGveTd1deKNTR6N8ILCl/29SAUKyjDvjiYt7mvz/6hYIdDeODgPzLQwNC0Y6GYaBjTc6nJO1C4Y7G/0rACPO+vNAuFO9oGFZ+OM3bTNQulOhoTCw92OR+ktcslOpoFK941zt3x1u7UKqjuxQSC/a09AolOxon/6w4dzcFGyJahdIdjcNWvC+5S74f1SxU6GgUrz3NGufrkh0tnUKVju7C/IWbvBtjPv9ZdiuGTqFaR/fxnNU0upMmTrAA7PZoFCp29Ihknr9ZLv02Y5AdV31C9Y7KRZsQpaOkhVgdJSs01VFtQmMd1SY01lFdQpGOnv1AFso+fygiFOho7/oMmehLAoWE8I5GQFwim2kQCnQ0BqIS5Z90hgvhHe3tgZjE4bh6IbijRyAiUf5RbrAQ3tEEEI2o8DsVoEJ4R1NAJKL8cQYuhHa0dwLEIba3lQuhHc0CMYjsSR4IFII7ygGenSn6PCUgUAh9nIkHvFYEDmcKFYUKgR3lVfTsWnFjjt0p+WBCYEerAA6X0md6ESHwOIpfUfUBwoSwjlYwweHyQR0IEMI6ig9EGWAkROooekURVuA+30vuiYJ1FBuINcA4z4VEUEfRKzpcYQ2wnAjpKDaQYQ4wzj/5RFBHkSuKtwIBREhH+ROU9qGuwGPeJ9IdRa4o8gosIwJGiAtkw0oGGOeSRwSsQtSKsgpW4DEXHGKpEHWCnlPdAPOIZUJUYBWH0HQ6bxli2TpErGiVK/CY7C3f2oDDpdqFPDCd36fEopoiVtTzdAwwSleAiAisfgVKEdEq6g21/nrZbuYJmhH3tmu8j2o6B8glDn5POQ8Y4lW0mk+hhXk4TxIHLw8NDhFtgr7mAWaIg2a0F5QhIgF7vdGlAWDqcb3BY/xKmohV0Z53OzAjbDweiIOP/StJIhIwHGD4FxgSNh53wsm/n68kiDgVDQfYNCjcERPABBEFGA/QqLDxOGnevKZe2RFxKroboFlh4+PPfyevREQU4GGAhoWN7FcGIRGjop8DNC3kZPpDHZgYID3hNvhLuaLJAZITdq/6rQxRbILpAVITdvv9VuuUKAhMD5CYcNuKgCdEoYpmBkhLuL3aAVNEMWBmgKSE3dYBmCCKVJQ3QErC3Ro8IQoBeQMkJDxWNEEUqGjOAAkJgzQwJooAcwZISJhchXsi/G68/AESEjY6J8R+wNueEh2gLuE4kdyd9fQU+60tb3tKdICahOF4jvmW+591F0divx89vgIhFg9Ql/AqMZt8YaKo/dbu+ZxSYtkAiQkbnf0U+1eHLpcQSwdITbhfi/3W8dK4kFg+QHLCmLhbg4fkEyEDpCeM1uJV+hm5HCJgBdIUNrrB6e4NlwgcIEUhJ1kieIA1ETamTHaAdRG+p74lFhlgTYQXk+QX4UIDrIcwvlnsQBQcYC2E+/uoRiEujOAA6yA83u53OxqNhH30hbyb/b6UUB1IW9jh3pH6lYSvf9SBtIWlj6LUX4hBJC5EIFIXqhPJC5WJ9IWqxBoIFYl1EKoRayFUItZDqEKsiVCBqFvYCr4VJf+ZD2midmHye6hsCm7JliXqFxalSChLrJFQklgnoRyxVkIpYr2EMsTBe62EEsTJc72E4sSbj9KfSUsoShy8VQ9EFooRd09VVR1koQBxcPOiAxgKoWnBHqT73jyH5e21/IehpAMO8Ad2YZH9pbk2NjY2NjY2NjY2NjY2NjY2NjY2NjY2NrXO/6NSBxHfiKu0AAAAAElFTkSuQmCC;" vertex="1" parent="1">
          <mxGeometry x="480" y="137" width="70" height="70" as="geometry" />
        </mxCell>
        <mxCell id="hfZZUyvQ45edJxOSnpxv-23" value="TF plan" style="text;html=1;align=center;verticalAlign=middle;resizable=0;points=[];autosize=1;strokeColor=none;fillColor=none;" vertex="1" parent="1">
          <mxGeometry x="485" y="110" width="60" height="30" as="geometry" />
        </mxCell>
        <mxCell id="hfZZUyvQ45edJxOSnpxv-24" value="Build" style="text;html=1;align=center;verticalAlign=middle;resizable=0;points=[];autosize=1;strokeColor=none;fillColor=none;" vertex="1" parent="1">
          <mxGeometry x="414" y="140" width="50" height="30" as="geometry" />
        </mxCell>
        <mxCell id="hfZZUyvQ45edJxOSnpxv-28" value="" style="rounded=0;whiteSpace=wrap;html=1;" vertex="1" parent="1">
          <mxGeometry x="590" y="90" width="120" height="160" as="geometry" />
        </mxCell>
      </root>
    </mxGraphModel>
  </diagram>
</mxfile>
